<mxfile host="Electron" agent="Mozilla/5.0 (Windows NT 10.0; Win64; x64) AppleWebKit/537.36 (KHTML, like Gecko) draw.io/28.0.6 Chrome/138.0.7204.100 Electron/37.2.3 Safari/537.36" version="28.0.6">
  <diagram name="第 1 页" id="0nw0pFnimbrHVUoLnm9P">
    <mxGraphModel dx="1426" dy="841" grid="1" gridSize="10" guides="1" tooltips="1" connect="1" arrows="1" fold="1" page="1" pageScale="1" pageWidth="827" pageHeight="1169" math="0" shadow="0">
      <root>
        <mxCell id="0" />
        <mxCell id="1" parent="0" />
        <mxCell id="bF-N6-YHWX4aWXx_sWlo-2" value="" style="rounded=0;whiteSpace=wrap;html=1;" vertex="1" parent="1">
          <mxGeometry x="100" y="140" width="580" height="110" as="geometry" />
        </mxCell>
        <mxCell id="bF-N6-YHWX4aWXx_sWlo-17" style="edgeStyle=orthogonalEdgeStyle;rounded=0;orthogonalLoop=1;jettySize=auto;html=1;exitX=0.5;exitY=1;exitDx=0;exitDy=0;entryX=0.5;entryY=0;entryDx=0;entryDy=0;" edge="1" parent="1" source="bF-N6-YHWX4aWXx_sWlo-1" target="bF-N6-YHWX4aWXx_sWlo-4">
          <mxGeometry relative="1" as="geometry">
            <Array as="points">
              <mxPoint x="385" y="150" />
              <mxPoint x="210" y="150" />
            </Array>
          </mxGeometry>
        </mxCell>
        <mxCell id="bF-N6-YHWX4aWXx_sWlo-1" value="input observation&lt;br&gt;(items, capacity, mask)" style="rounded=1;whiteSpace=wrap;html=1;" vertex="1" parent="1">
          <mxGeometry x="300" y="60" width="170" height="60" as="geometry" />
        </mxCell>
        <mxCell id="bF-N6-YHWX4aWXx_sWlo-18" style="edgeStyle=orthogonalEdgeStyle;rounded=0;orthogonalLoop=1;jettySize=auto;html=1;exitX=1;exitY=0.5;exitDx=0;exitDy=0;entryX=0;entryY=0.5;entryDx=0;entryDy=0;" edge="1" parent="1" source="bF-N6-YHWX4aWXx_sWlo-4" target="bF-N6-YHWX4aWXx_sWlo-5">
          <mxGeometry relative="1" as="geometry" />
        </mxCell>
        <mxCell id="bF-N6-YHWX4aWXx_sWlo-4" value="item embedding&lt;div&gt;nn.linear&lt;/div&gt;" style="rounded=1;whiteSpace=wrap;html=1;" vertex="1" parent="1">
          <mxGeometry x="150" y="165" width="120" height="60" as="geometry" />
        </mxCell>
        <mxCell id="bF-N6-YHWX4aWXx_sWlo-19" style="edgeStyle=orthogonalEdgeStyle;rounded=0;orthogonalLoop=1;jettySize=auto;html=1;exitX=1;exitY=0.5;exitDx=0;exitDy=0;entryX=0;entryY=0.5;entryDx=0;entryDy=0;" edge="1" parent="1" source="bF-N6-YHWX4aWXx_sWlo-5" target="bF-N6-YHWX4aWXx_sWlo-6">
          <mxGeometry relative="1" as="geometry" />
        </mxCell>
        <mxCell id="bF-N6-YHWX4aWXx_sWlo-5" value="position encoding" style="rounded=1;whiteSpace=wrap;html=1;" vertex="1" parent="1">
          <mxGeometry x="325" y="165" width="120" height="60" as="geometry" />
        </mxCell>
        <mxCell id="bF-N6-YHWX4aWXx_sWlo-20" style="edgeStyle=orthogonalEdgeStyle;rounded=0;orthogonalLoop=1;jettySize=auto;html=1;exitX=0.5;exitY=1;exitDx=0;exitDy=0;entryX=0.5;entryY=0;entryDx=0;entryDy=0;" edge="1" parent="1" source="bF-N6-YHWX4aWXx_sWlo-6" target="bF-N6-YHWX4aWXx_sWlo-7">
          <mxGeometry relative="1" as="geometry">
            <Array as="points">
              <mxPoint x="560" y="270" />
              <mxPoint x="270" y="270" />
            </Array>
          </mxGeometry>
        </mxCell>
        <mxCell id="bF-N6-YHWX4aWXx_sWlo-21" style="edgeStyle=orthogonalEdgeStyle;rounded=0;orthogonalLoop=1;jettySize=auto;html=1;exitX=1;exitY=0.5;exitDx=0;exitDy=0;entryX=1;entryY=0.5;entryDx=0;entryDy=0;" edge="1" parent="1" source="bF-N6-YHWX4aWXx_sWlo-6" target="bF-N6-YHWX4aWXx_sWlo-8">
          <mxGeometry relative="1" as="geometry" />
        </mxCell>
        <mxCell id="bF-N6-YHWX4aWXx_sWlo-6" value="transformer blocks" style="rounded=1;whiteSpace=wrap;html=1;" vertex="1" parent="1">
          <mxGeometry x="500" y="165" width="120" height="60" as="geometry" />
        </mxCell>
        <mxCell id="bF-N6-YHWX4aWXx_sWlo-7" value="item context&lt;div&gt;[batch_size, embedding_dim]&lt;/div&gt;" style="rounded=1;whiteSpace=wrap;html=1;" vertex="1" parent="1">
          <mxGeometry x="210" y="290" width="120" height="60" as="geometry" />
        </mxCell>
        <mxCell id="bF-N6-YHWX4aWXx_sWlo-8" value="pooled features&lt;div&gt;[batch_size, seq_len, embedding_dim]&lt;/div&gt;" style="rounded=1;whiteSpace=wrap;html=1;" vertex="1" parent="1">
          <mxGeometry x="440" y="290" width="150" height="60" as="geometry" />
        </mxCell>
        <mxCell id="bF-N6-YHWX4aWXx_sWlo-9" value="" style="rounded=0;whiteSpace=wrap;html=1;" vertex="1" parent="1">
          <mxGeometry x="100" y="380" width="270" height="270" as="geometry" />
        </mxCell>
        <mxCell id="bF-N6-YHWX4aWXx_sWlo-10" value="" style="rounded=0;whiteSpace=wrap;html=1;" vertex="1" parent="1">
          <mxGeometry x="414" y="380" width="276" height="270" as="geometry" />
        </mxCell>
        <mxCell id="bF-N6-YHWX4aWXx_sWlo-26" style="edgeStyle=orthogonalEdgeStyle;rounded=0;orthogonalLoop=1;jettySize=auto;html=1;exitX=0.5;exitY=1;exitDx=0;exitDy=0;entryX=0.5;entryY=0;entryDx=0;entryDy=0;" edge="1" parent="1" source="bF-N6-YHWX4aWXx_sWlo-11" target="bF-N6-YHWX4aWXx_sWlo-12">
          <mxGeometry relative="1" as="geometry" />
        </mxCell>
        <mxCell id="bF-N6-YHWX4aWXx_sWlo-11" value="Pointer Attention" style="rounded=1;whiteSpace=wrap;html=1;" vertex="1" parent="1">
          <mxGeometry x="175" y="420" width="120" height="60" as="geometry" />
        </mxCell>
        <mxCell id="bF-N6-YHWX4aWXx_sWlo-12" value="Action Logits (Policy)" style="rounded=1;whiteSpace=wrap;html=1;" vertex="1" parent="1">
          <mxGeometry x="175" y="570" width="120" height="60" as="geometry" />
        </mxCell>
        <mxCell id="bF-N6-YHWX4aWXx_sWlo-30" style="edgeStyle=orthogonalEdgeStyle;rounded=0;orthogonalLoop=1;jettySize=auto;html=1;exitX=0;exitY=1;exitDx=0;exitDy=0;entryX=0.5;entryY=0;entryDx=0;entryDy=0;" edge="1" parent="1" source="bF-N6-YHWX4aWXx_sWlo-13" target="bF-N6-YHWX4aWXx_sWlo-14">
          <mxGeometry relative="1" as="geometry" />
        </mxCell>
        <mxCell id="bF-N6-YHWX4aWXx_sWlo-31" style="edgeStyle=orthogonalEdgeStyle;rounded=0;orthogonalLoop=1;jettySize=auto;html=1;exitX=1;exitY=1;exitDx=0;exitDy=0;" edge="1" parent="1" source="bF-N6-YHWX4aWXx_sWlo-13" target="bF-N6-YHWX4aWXx_sWlo-15">
          <mxGeometry relative="1" as="geometry" />
        </mxCell>
        <mxCell id="bF-N6-YHWX4aWXx_sWlo-13" value="critic type" style="rhombus;whiteSpace=wrap;html=1;" vertex="1" parent="1">
          <mxGeometry x="471" y="410" width="162" height="60" as="geometry" />
        </mxCell>
        <mxCell id="bF-N6-YHWX4aWXx_sWlo-32" style="edgeStyle=orthogonalEdgeStyle;rounded=0;orthogonalLoop=1;jettySize=auto;html=1;exitX=0.5;exitY=1;exitDx=0;exitDy=0;entryX=0.5;entryY=0;entryDx=0;entryDy=0;" edge="1" parent="1" source="bF-N6-YHWX4aWXx_sWlo-14" target="bF-N6-YHWX4aWXx_sWlo-16">
          <mxGeometry relative="1" as="geometry" />
        </mxCell>
        <mxCell id="bF-N6-YHWX4aWXx_sWlo-14" value="MLP" style="rounded=1;whiteSpace=wrap;html=1;" vertex="1" parent="1">
          <mxGeometry x="440" y="500" width="70" height="60" as="geometry" />
        </mxCell>
        <mxCell id="bF-N6-YHWX4aWXx_sWlo-33" style="edgeStyle=orthogonalEdgeStyle;rounded=0;orthogonalLoop=1;jettySize=auto;html=1;exitX=0.5;exitY=1;exitDx=0;exitDy=0;entryX=0.5;entryY=0;entryDx=0;entryDy=0;" edge="1" parent="1" source="bF-N6-YHWX4aWXx_sWlo-15" target="bF-N6-YHWX4aWXx_sWlo-16">
          <mxGeometry relative="1" as="geometry" />
        </mxCell>
        <mxCell id="bF-N6-YHWX4aWXx_sWlo-15" value="Iterative Attention Refinement" style="rounded=1;whiteSpace=wrap;html=1;" vertex="1" parent="1">
          <mxGeometry x="570" y="500" width="110" height="60" as="geometry" />
        </mxCell>
        <mxCell id="bF-N6-YHWX4aWXx_sWlo-16" value="state value" style="rounded=1;whiteSpace=wrap;html=1;" vertex="1" parent="1">
          <mxGeometry x="492" y="600" width="120" height="45" as="geometry" />
        </mxCell>
        <mxCell id="bF-N6-YHWX4aWXx_sWlo-22" value="Shared Transformer Encoder" style="text;html=1;align=center;verticalAlign=middle;resizable=0;points=[];autosize=1;strokeColor=none;fillColor=none;" vertex="1" parent="1">
          <mxGeometry x="88" y="112" width="180" height="30" as="geometry" />
        </mxCell>
        <mxCell id="bF-N6-YHWX4aWXx_sWlo-23" value="Actor Head (Pointer Decoder)" style="text;html=1;align=center;verticalAlign=middle;resizable=0;points=[];autosize=1;strokeColor=none;fillColor=none;" vertex="1" parent="1">
          <mxGeometry x="60" y="358" width="180" height="30" as="geometry" />
        </mxCell>
        <mxCell id="bF-N6-YHWX4aWXx_sWlo-24" value="Critic Head" style="text;html=1;align=center;verticalAlign=middle;resizable=0;points=[];autosize=1;strokeColor=none;fillColor=none;" vertex="1" parent="1">
          <mxGeometry x="420" y="358" width="80" height="30" as="geometry" />
        </mxCell>
        <mxCell id="bF-N6-YHWX4aWXx_sWlo-25" style="edgeStyle=orthogonalEdgeStyle;rounded=0;orthogonalLoop=1;jettySize=auto;html=1;exitX=0.5;exitY=1;exitDx=0;exitDy=0;" edge="1" parent="1" source="bF-N6-YHWX4aWXx_sWlo-7" target="bF-N6-YHWX4aWXx_sWlo-11">
          <mxGeometry relative="1" as="geometry">
            <Array as="points">
              <mxPoint x="270" y="400" />
              <mxPoint x="235" y="400" />
            </Array>
          </mxGeometry>
        </mxCell>
        <mxCell id="bF-N6-YHWX4aWXx_sWlo-27" style="edgeStyle=orthogonalEdgeStyle;rounded=0;orthogonalLoop=1;jettySize=auto;html=1;exitX=0;exitY=0.5;exitDx=0;exitDy=0;entryX=1;entryY=0.5;entryDx=0;entryDy=0;" edge="1" parent="1" source="bF-N6-YHWX4aWXx_sWlo-8" target="bF-N6-YHWX4aWXx_sWlo-11">
          <mxGeometry relative="1" as="geometry">
            <Array as="points">
              <mxPoint x="340" y="320" />
              <mxPoint x="340" y="450" />
            </Array>
          </mxGeometry>
        </mxCell>
        <mxCell id="bF-N6-YHWX4aWXx_sWlo-28" style="edgeStyle=orthogonalEdgeStyle;rounded=0;orthogonalLoop=1;jettySize=auto;html=1;exitX=0.75;exitY=1;exitDx=0;exitDy=0;entryX=0.5;entryY=0;entryDx=0;entryDy=0;" edge="1" parent="1" source="bF-N6-YHWX4aWXx_sWlo-7" target="bF-N6-YHWX4aWXx_sWlo-13">
          <mxGeometry relative="1" as="geometry">
            <Array as="points">
              <mxPoint x="300" y="400" />
              <mxPoint x="552" y="400" />
            </Array>
          </mxGeometry>
        </mxCell>
        <mxCell id="bF-N6-YHWX4aWXx_sWlo-29" style="edgeStyle=orthogonalEdgeStyle;rounded=0;orthogonalLoop=1;jettySize=auto;html=1;exitX=0.5;exitY=1;exitDx=0;exitDy=0;entryX=1;entryY=0.5;entryDx=0;entryDy=0;" edge="1" parent="1" source="bF-N6-YHWX4aWXx_sWlo-8" target="bF-N6-YHWX4aWXx_sWlo-15">
          <mxGeometry relative="1" as="geometry">
            <Array as="points">
              <mxPoint x="500" y="370" />
              <mxPoint x="700" y="370" />
              <mxPoint x="700" y="530" />
            </Array>
          </mxGeometry>
        </mxCell>
      </root>
    </mxGraphModel>
  </diagram>
</mxfile>
